<svg xmlns="http://www.w3.org/2000/svg" version="1.1" xmlns:xlink="http://www.w3.org/1999/xlink" viewBox="0 0 200 200"><rect width="200" height="200" fill="url('#gradient')"></rect><defs><linearGradient id="gradient" gradientTransform="rotate(344 0.5 0.5)"><stop offset="0%" stop-color="#505357"></stop><stop offset="100%" stop-color="#e94e39"></stop></linearGradient></defs><g><g fill="#241010" transform="matrix(1.4899963623135686,0,0,1.4899963623135686,20.044686496745626,108.0757021961233)" stroke="#3a5a7e" stroke-width="1.5"><path d="M9.98 0L9.15-2.66L4.45-2.66L3.63 0L-0.03 0L5.19-14.22L8.41-14.22L13.66 0L9.98 0ZM6.80-10.23L5.27-5.30L8.33-5.30L6.80-10.23ZM20.08-2.97L20.08-2.97Q20.08-3.39 19.64-3.64Q19.20-3.90 17.97-4.17Q16.74-4.44 15.94-4.89Q15.14-5.33 14.72-5.97Q14.30-6.60 14.30-7.42L14.30-7.42Q14.30-8.88 15.50-9.82Q16.70-10.76 18.64-10.76L18.64-10.76Q20.73-10.76 22.00-9.81Q23.27-8.87 23.27-7.32L23.27-7.32L19.97-7.32Q19.97-8.59 18.63-8.59L18.63-8.59Q18.12-8.59 17.76-8.31Q17.41-8.02 17.41-7.59L17.41-7.59Q17.41-7.15 17.84-6.88Q18.27-6.60 19.21-6.43Q20.16-6.25 20.87-6.01L20.87-6.01Q23.25-5.19 23.25-3.07L23.25-3.07Q23.25-1.62 21.97-0.71Q20.68 0.20 18.64 0.20L18.64 0.20Q17.29 0.20 16.22-0.29Q15.16-0.78 14.56-1.62Q13.96-2.46 13.96-3.39L13.96-3.39L17.04-3.39Q17.06-2.66 17.53-2.32Q18.00-1.98 18.73-1.98L18.73-1.98Q19.40-1.98 19.74-2.26Q20.08-2.53 20.08-2.97ZM28.01-15L28.01-9.43Q29.06-10.76 30.70-10.76L30.70-10.76Q32.45-10.76 33.34-9.73Q34.23-8.69 34.25-6.67L34.25-6.67L34.25 0L30.95 0L30.95-6.59Q30.95-7.43 30.61-7.83Q30.26-8.22 29.44-8.22L29.44-8.22Q28.43-8.22 28.01-7.58L28.01-7.58L28.01 0L24.72 0L24.72-15L28.01-15ZM39.55-10.57L39.55 0L36.25 0L36.25-10.57L39.55-10.57ZM36.05-13.29L36.05-13.29Q36.05-13.99 36.56-14.44Q37.07-14.89 37.88-14.89Q38.69-14.89 39.20-14.44Q39.71-13.99 39.71-13.29Q39.71-12.59 39.20-12.14Q38.69-11.69 37.88-11.69Q37.07-11.69 36.56-12.14Q36.05-12.59 36.05-13.29ZM47.11-2.97L47.11-2.97Q47.11-3.39 46.67-3.64Q46.23-3.90 45-4.17Q43.77-4.44 42.97-4.89Q42.17-5.33 41.75-5.97Q41.33-6.60 41.33-7.42L41.33-7.42Q41.33-8.88 42.53-9.82Q43.73-10.76 45.67-10.76L45.67-10.76Q47.76-10.76 49.03-9.81Q50.30-8.87 50.30-7.32L50.30-7.32L47.00-7.32Q47.00-8.59 45.66-8.59L45.66-8.59Q45.15-8.59 44.79-8.31Q44.44-8.02 44.44-7.59L44.44-7.59Q44.44-7.15 44.87-6.88Q45.30-6.60 46.25-6.43Q47.19-6.25 47.90-6.01L47.90-6.01Q50.28-5.19 50.28-3.07L50.28-3.07Q50.28-1.62 49.00-0.71Q47.71 0.20 45.67 0.20L45.67 0.20Q44.32 0.20 43.25-0.29Q42.19-0.78 41.59-1.62Q41.00-2.46 41.00-3.39L41.00-3.39L44.07-3.39Q44.09-2.66 44.56-2.32Q45.03-1.98 45.76-1.98L45.76-1.98Q46.44-1.98 46.77-2.26Q47.11-2.53 47.11-2.97ZM55.04-15L55.04-9.43Q56.09-10.76 57.73-10.76L57.73-10.76Q59.48-10.76 60.37-9.73Q61.26-8.69 61.28-6.67L61.28-6.67L61.28 0L57.98 0L57.98-6.59Q57.98-7.43 57.64-7.83Q57.29-8.22 56.47-8.22L56.47-8.22Q55.46-8.22 55.04-7.58L55.04-7.58L55.04 0L51.75 0L51.75-15L55.04-15ZM74.01 0L68.24 0L68.24-14.22L73.35-14.22Q76.09-14.22 77.52-13.21Q78.96-12.21 78.96-10.29L78.96-10.29Q78.96-9.19 78.45-8.41Q77.94-7.63 76.95-7.26L76.95-7.26Q78.07-6.96 78.66-6.16Q79.26-5.36 79.26-4.21L79.26-4.21Q79.26-2.12 77.93-1.07Q76.61-0.02 74.01 0L74.01 0ZM74.07-6.04L71.67-6.04L71.67-2.64L73.92-2.64Q74.84-2.64 75.34-3.06Q75.84-3.49 75.84-4.26L75.84-4.26Q75.84-6.04 74.07-6.04L74.07-6.04ZM71.67-11.57L71.67-8.29L73.46-8.29Q74.58-8.30 75.06-8.70Q75.54-9.10 75.54-9.88L75.54-9.88Q75.54-10.78 75.02-11.18Q74.50-11.57 73.35-11.57L73.35-11.57L71.67-11.57ZM84.46-15L84.46 0L81.16 0L81.16-15L84.46-15ZM86.08-4.82L86.07-5.38Q86.07-6.96 86.69-8.20Q87.30-9.43 88.46-10.10Q89.61-10.76 91.16-10.76L91.16-10.76Q93.54-10.76 94.90-9.29Q96.27-7.82 96.27-5.29L96.27-5.29L96.27-5.18Q96.27-2.71 94.90-1.25Q93.53 0.20 91.18 0.20L91.18 0.20Q88.93 0.20 87.56-1.16Q86.19-2.51 86.08-4.82L86.08-4.82ZM89.38-5.77L89.37-5.18Q89.37-3.71 89.82-3.03Q90.28-2.34 91.18-2.34L91.18-2.34Q92.94-2.34 92.98-5.05L92.98-5.05L92.98-5.38Q92.98-8.22 91.16-8.22L91.16-8.22Q89.51-8.22 89.38-5.77L89.38-5.77ZM97.33-5.24L97.33-5.36Q97.33-6.96 97.86-8.19Q98.39-9.42 99.38-10.09Q100.36-10.76 101.67-10.76L101.67-10.76Q103.32-10.76 104.25-9.65L104.25-9.65L104.37-10.57L107.35-10.57L107.35-0.40Q107.35 1.00 106.70 2.03Q106.05 3.06 104.82 3.61Q103.59 4.16 101.97 4.16L101.97 4.16Q100.81 4.16 99.72 3.72Q98.63 3.28 98.06 2.58L98.06 2.58L99.43 0.64Q100.35 1.73 101.86 1.73L101.86 1.73Q104.04 1.73 104.04-0.52L104.04-0.52L104.04-0.85Q103.10 0.20 101.65 0.20L101.65 0.20Q99.72 0.20 98.53-1.28Q97.33-2.76 97.33-5.24L97.33-5.24ZM100.63-5.16L100.63-5.16Q100.63-3.86 101.12-3.10Q101.61-2.34 102.49-2.34L102.49-2.34Q103.55-2.34 104.04-3.06L104.04-3.06L104.04-7.50Q103.56-8.22 102.51-8.22L102.51-8.22Q101.63-8.22 101.13-7.44Q100.63-6.65 100.63-5.16Z"></path></g></g></svg>